{
  "asset": {
    "version": "2.0",
    "generator": "THREE.GLTFExporter"
  },
  "scenes": [
    {
      "name": "Scene",
      "nodes": [
        3
      ]
    }
  ],
  "scene": 0,
  "nodes": [
    {
      "matrix": [
        -0.29086472054778045,
        -0.05518905495420892,
        -0.9551712257858395,
        0,
        -0.7711009351459341,
        0.6045246237123099,
        0.199883427886871,
        0,
        0.566393142122742,
        0.7946724233013915,
        -0.218391221572917,
        0,
        4.076245307922363,
        5.903861999511719,
        -1.0054539442062378,
        1
      ],
      "name": "Light",
      "extras": {
        "name": "Light"
      },
      "extensions": {
        "KHR_lights_punctual": {
          "light": 0
        }
      }
    },
    {
      "matrix": [
        0.6859206348390127,
        -1.869367725608735e-8,
        -0.7276763572581317,
        0,
        -0.3240134602374183,
        0.8953956546790038,
        -0.30542085483953363,
        0,
        0.6515582540718883,
        0.4452714011345962,
        0.6141703498900131,
        0,
        7.358891487121582,
        4.958309173583984,
        6.925790786743164,
        1
      ],
      "name": "Camera",
      "extras": {
        "name": "Camera"
      },
      "camera": 0
    },
    {
      "matrix": [
        0,
        0,
        -1,
        0,
        -1,
        0,
        0,
        0,
        0,
        -1,
        0,
        0,
        0,
        0,
        0,
        1
      ],
      "name": "diluent_2",
      "extras": {
        "name": "diluent_2"
      },
      "mesh": 0
    },
    {
      "name": "diluent-prototype.glb",
      "children": [
        0,
        1,
        2
      ]
    }
  ],
  "extensions": {
    "KHR_lights_punctual": {
      "lights": [
        {
          "name": "Light",
          "color": [
            1,
            1,
            1
          ],
          "intensity": 50000,
          "type": "point"
        }
      ]
    }
  },
  "cameras": [
    {
      "type": "perspective",
      "perspective": {
        "aspectRatio": 1.7777777777777777,
        "yfov": 0.39959652046304894,
        "zfar": 100,
        "znear": 0.10000000149011612
      },
      "name": "PerspectiveCamera"
    }
  ],
  "bufferViews": [
    {
      "buffer": 0,
      "byteOffset": 0,
      "byteLength": 3780,
      "target": 34962,
      "byteStride": 12
    },
    {
      "buffer": 0,
      "byteOffset": 3780,
      "byteLength": 3780,
      "target": 34962,
      "byteStride": 12
    },
    {
      "buffer": 0,
      "byteOffset": 7560,
      "byteLength": 2520,
      "target": 34962,
      "byteStride": 8
    },
    {
      "buffer": 0,
      "byteOffset": 10080,
      "byteLength": 1028,
      "target": 34963
    }
  ],
  "buffers": [
    {
      "byteLength": 11108,
      "uri": "data:application/octet-stream;base64,"
    }
  ],
  "accessors": [
    {
      "bufferView": 0,
      "componentType": 5126,
      "count": 315,
      "max": [
        0.1540270447731018,
        0.15000000596046448,
        0.4266108572483063
      ],
      "min": [
        -0.13778924942016602,
        -0.15000000596046448,
        -0.4308290481567383
      ],
      "type": "VEC3"
    },
    {
      "bufferView": 1,
      "componentType": 5126,
      "count": 315,
      "max": [
        1,
        1,
        0.999998927116394
      ],
      "min": [
        -1,
        0,
        -0.999998927116394
      ],
      "type": "VEC3"
    },
    {
      "bufferView": 2,
      "componentType": 5126,
      "count": 315,
      "max": [
        0.6540270447731018,
        1
      ],
      "min": [
        0,
        0.06917095184326172
      ],
      "type": "VEC2"
    },
    {
      "bufferView": 3,
      "componentType": 5123,
      "count": 513,
      "max": [
        314
      ],
      "min": [
        0
      ],
      "type": "SCALAR"
    }
  ],
  "materials": [
    {
      "pbrMetallicRoughness": {
        "baseColorFactor": [
          0.5972017883558645,
          0.010329823026364548,
          0.010329823026364548,
          1
        ],
        "metallicFactor": 1,
        "roughnessFactor": 0.2
      },
      "alphaMode": "BLEND",
      "doubleSided": true,
      "name": "diluent_2"
    }
  ],
  "meshes": [
    {
      "primitives": [
        {
          "mode": 4,
          "attributes": {
            "POSITION": 0,
            "NORMAL": 1,
            "TEXCOORD_0": 2
          },
          "indices": 3,
          "material": 0
        }
      ]
    }
  ],
  "extensionsUsed": [
    "KHR_lights_punctual"
  ]
}